<svg width="24" height="24" viewBox="0 0 24 24" fill="none" xmlns="http://www.w3.org/2000/svg">
<path d="M22 5.01242C21.2511 5.35943 20.4567 5.58721 19.6433 5.68818C20.4905 5.15705 21.1411 4.31598 21.4474 3.31386C20.642 3.81376 19.7608 4.16598 18.8419 4.35529C18.0934 3.52125 17.027 3 15.8468 3C13.5807 3 11.7434 4.92156 11.7434 7.29155C11.7434 7.62796 11.7798 7.95547 11.8497 8.26965C8.43952 8.09062 5.41609 6.38209 3.39226 3.78559C3.03913 4.41943 2.83679 5.15673 2.83679 5.94313C2.83679 7.4321 3.56124 8.74563 4.66218 9.51528C4.01058 9.49394 3.37331 9.30986 2.80359 8.97843C2.80335 8.99641 2.80335 9.01438 2.80335 9.03244C2.80335 11.1118 4.21773 12.8464 6.09476 13.2406C5.49053 13.4125 4.85673 13.4377 4.24179 13.3142C4.7639 15.0192 6.27929 16.2599 8.07476 16.2947C6.67046 17.4457 4.90116 18.1318 2.97882 18.1318C2.64757 18.1318 2.32101 18.1115 1.99999 18.0718C3.81585 19.2895 5.97265 20 8.28984 20C15.8373 20 19.9644 13.4605 19.9644 7.78926C19.9644 7.60312 19.9605 7.41804 19.9525 7.23403C20.7558 6.62664 21.4491 5.87434 22 5.01242Z" fill="white"/>
</svg>
